<svg xmlns="http://www.w3.org/2000/svg" version="1.1" xmlns:xlink="http://www.w3.org/1999/xlink" xmlns:svgjs="http://svgjs.dev/svgjs" width="308.7612359841165" height="304.915625" viewBox="0 0 300 300"><g transform="matrix(1,0,0,1,0,0)"><svg viewBox="0 0 320 360" data-background-color="#ffffff" preserveAspectRatio="xMidYMid meet" height="304.915625" width="308.7612359841165" xmlns="http://www.w3.org/2000/svg" xmlns:xlink="http://www.w3.org/1999/xlink"><g id="tight-bounds" transform="matrix(1,0,0,1,0,0)"><svg viewBox="0 0 320 360" height="360" width="320"><g><svg></svg></g><g><svg viewBox="0 0 320 360" height="360" width="320"><g><path d="M219.58 41.008c0.707 0 6.365 2.829 9.547 3.89-1.061 0.354-3.536-0.707-6.365-1.768 0.707 0 2.122 0.354 3.536 1.06-0.707-0.707-6.011-2.475-6.718-3.182M166.895 30.047c1.061-0.354 13.436 1.414 19.094 1.768 0.354-0.354-0.707-0.354-2.122-0.707 1.768-0.354 5.304 0.707 7.779 1.06-7.425 0.354-15.558-1.768-22.629-1.06-2.475 0-0.707-0.707-2.122-1.061M156.641 30.047c6.365 0 11.315 0 2.121 0.707-1.061-0.354-2.475-0.354-2.121-0.707M256.707 59.395c0.707 0 3.536 3.182 4.95 4.243-0.354 0.354-3.182-2.475-4.596-3.536 0.354 0.354 0 0-0.354-0.707M249.635 54.798c-2.829-2.475-3.889-2.475-4.243-3.889 2.475 1.414 4.243 2.829 4.243 3.889M204.022 32.522c0.354-0.354 1.061 0.354 2.829 0.707-2.122-0.354-1.768 0-1.061 0.707-2.475-0.354-3.182-0.707-2.475-1.414 1.414 0.707 1.768 0.354 0.707 0M103.602 36.765c0-0.354 1.414-1.061 2.475-1.414-1.061 0.707-0.707 1.061 1.061 0.353 0 0.354-2.122 1.061-3.536 1.768 0.707-0.354 1.414-1.414 0-0.707M211.094 28.986c-1.061 0.354-4.95-1.768-8.84-2.475-2.122-0.707 8.486 1.768 8.84 2.475M2.475 203.66c2.122 8.84 0.707 8.486 0 0M2.829 150.621c0.354-1.414 0.707-5.304 1.06-4.95-1.061 8.486-2.829 12.376-3.182 18.74 1.061-5.657-0.354 3.182-0.707 5.304 0.354 2.829 0.354-1.768 1.061-1.06 0.707 1.061-1.414 15.912-0.707 7.779-0.707 7.425 0 15.558 1.414 17.679-1.768 11.315 7.072 36.773 8.84 42.077 0.354 0.354 0-1.768 0.707-0.353 0.707 4.597 3.889 7.779 4.95 12.729 1.061 1.414 5.304 9.193 6.011 10.962 1.414 2.829 2.122 2.475 3.536 5.303 4.243 8.133 10.961 15.912 17.326 23.337 20.508 24.044 51.978 43.845 86.984 50.918 35.006 7.425 71.779 2.122 100.419-11.669 1.768-1.061 1.414-1.414 3.536-2.122 9.901-3.182 21.923-13.436 28.641-17.326 3.182-3.536 11.669-9.547 12.73-13.082 6.011-4.95 12.022-13.083 15.204-18.387 1.768-2.829 3.182-2.829 3.889-4.597-0.354 0 5.657-7.425 7.426-11.668-0.707 0-1.768 2.122-1.768 0 12.729-24.398 19.801-57.282 15.911-79.912 0.707 27.934-6.365 59.05-19.801 78.851-6.011 12.729-18.387 26.519-29.701 36.42-1.768 1.768-3.536 3.889-5.658 5.304-6.718 5.657-14.144 10.254-21.922 14.497-18.387 10.254-38.895 19.094-62.94 19.447 41.37-3.536 78.497-24.398 99.006-49.856-15.558 15.204-22.276 21.215-39.602 30.055-1.414 2.475-13.083 7.425-20.862 9.547 4.597-2.122 14.144-5.657 17.326-8.486-25.812 12.376-54.453 19.448-81.326 15.558 10.254 0 24.751 0.354 38.541-2.121 2.122-0.707 3.182-1.414 5.658-1.768 26.873-6.011 52.685-19.094 71.072-37.481-10.608 9.547-26.519 20.862-36.774 24.398 9.547-5.304 26.873-15.558 32.53-23.337-11.315 11.315-32.53 22.63-45.966 27.58-2.122 0.354 1.414-1.414-2.122 0-4.243 1.061-2.475 1.061-3.536 1.768-16.265 4.597-35.006 8.486-50.563 7.072-2.829-0.354-3.889-1.061-6.365-1.061-2.829-0.354-5.304-0.354-8.486-0.354-12.376-1.414-25.812-6.365-35.713-10.607-5.304-2.475-10.608-4.243-15.912-7.426-4.243-2.475-7.779-5.304-11.314-8.132-13.436-9.901-24.751-19.801-35.36-33.945-19.094-26.519-28.994-59.757-27.58-92.641 1.414-32.884 14.497-65.061 35.359-88.752-1.061 1.061 1.414-2.475 3.536-4.596 0 0.707-0.354 1.768 2.122-0.707 2.122-2.475-0.707-0.707 0.353-2.122 21.923-24.044 60.111-43.492 99.36-44.199 1.414-1.061 3.889-2.475 6.718-1.768 0 0.354-1.768 0.354-1.768 0.354 3.889-0.354 7.425-0.354 9.193 0.353 0.354-0.354-1.414-0.707 0-0.707 2.475 0.707 3.182 0 4.597 0.707-1.061 0-2.122 0-2.829 0.354 8.84 0 14.497 2.122 23.337 2.829-4.597-1.061-5.657-1.061-9.193-2.122 3.889 0.707 5.657 1.414 7.425 1.061-0.707 0-0.354-1.061 0.354-0.707 7.072 1.768 7.779 2.475 15.204 4.95 0.707-0.707-3.182-1.061-4.243-2.122 7.072 2.475 13.436 4.243 17.68 7.072-1.414-1.061-5.657-2.475-8.84-3.889-0.354 0.354 1.061 0.707 1.414 1.414-3.536-1.768-8.486-3.536-13.436-4.243 4.243 1.061 7.072 2.475 8.84 3.182-3.889-0.707-8.84-3.182-14.498-4.243 9.193 2.829 26.519 9.193 37.127 14.851-3.889-2.475-8.486-4.243-10.961-5.657 2.122 0.354 4.597 1.768 4.597 1.06 2.475 1.061 5.657 3.536 7.425 3.89-3.182-2.122-9.547-5.304-11.668-6.365 26.519 12.022 50.21 32.177 65.414 57.989 1.414 2.475 3.536 8.133 5.304 8.84-0.354-1.768-1.768-2.829-3.182-5.657 0.707 0 0.707-1.061 0-2.122-1.414-1.768 0 1.414-1.415-0.354-6.365-11.669-14.144-21.923-26.165-33.237 6.718 6.365 1.768 1.768 0.353-0.354 9.193 8.133 19.801 21.923 24.398 28.995-0.707-1.061-1.061-1.768-0.707-1.768 8.486 14.497 13.79 27.58 19.094 46.32 0.354 0.354 0-1.414 0.707-0.353 3.536 14.851 4.597 27.227 4.243 38.541 2.829-19.094-3.536-48.796-14.851-72.133-1.414-2.829-1.414-0.707-2.829-3.889 0-1.061-1.061-3.182-1.768-4.597-14.144-23.337-31.47-39.956-51.978-53.038 1.414 0.707 4.243 2.829 4.244 2.475-38.188-25.105-82.387-28.641-118.807-20.862-2.475 1.061-3.536 2.122-6.365 3.536 5.304-1.768 8.486-2.122 13.437-3.183 1.061-1.061-4.597 0.354-2.122-0.707 0.354 0.354 4.95-0.707 6.011-0.353 0 0.354-1.414 0.707-1.768 1.06 11.669-2.475 23.691-2.829 33.945-2.121-6.011 0.354-16.972-0.707-20.508 1.061 3.536-0.354 8.486-0.707 11.668-0.354-4.243 0-12.022 0.354-15.558 0.707-0.354-0.354 5.657-1.061 1.768-1.06-1.768 0.354-4.597 0.354-5.657 1.414-30.409 2.829-60.111 18.74-80.973 37.481-4.243 3.536-9.193 7.425-12.375 11.314-7.779 8.84-12.729 17.68-18.387 25.459 3.536-7.425 11.315-18.74 20.508-28.287 9.193-9.547 19.094-17.68 24.398-21.923 0 1.414 8.486-5.304 11.669-7.425-2.122 1.768 1.414-0.707 2.121-0.354 11.315-6.718 20.508-9.193 30.763-13.083-2.475 0.707-4.597 1.414-4.951 1.061 2.475-0.707 3.889-1.414 3.536-1.768-9.901 2.829-25.459 9.547-37.834 16.972 22.276-15.204 50.564-24.398 78.497-24.751 27.934-0.707 55.16 6.365 76.729 17.68 14.497 6.365 28.287 18.033 39.249 29.348 3.182 2.829 0.707-0.707 5.304 4.243-1.414-0.707-2.475-1.414-0.707 0.707 2.829 3.182-0.707-2.475 3.889 3.182-0.354 0-1.768-1.768-1.768-1.061 12.376 10.961 21.923 30.762 27.58 43.846-1.414-5.304-4.95-12.729-7.779-18.033 8.486 15.558 11.315 24.751 14.851 38.541 1.414 1.061-0.707-4.95 0.707-2.121 0.354 2.122 0.707 8.84 2.122 9.9-1.061-6.718-2.829-14.851-4.243-16.265 1.061 0.707-1.768-8.133-3.536-10.254-0.707-5.657-5.657-15.558-9.901-22.984-15.204-29.702-42.431-54.099-72.839-67.536 0-0.707-1.768-1.414-2.476-2.121-30.055-12.729-66.122-16.265-100.773-8.133-35.006 8.486-67.889 28.641-91.227 57.636 1.061-3.536 9.901-10.254 10.255-13.083-10.254 10.961-21.215 25.459-28.641 41.016-7.779 15.558-12.022 31.47-13.79 43.138" fill="#6936f5" fill-rule="nonzero" stroke="none" stroke-width="1" stroke-linecap="butt" stroke-linejoin="miter" stroke-miterlimit="10" stroke-dasharray="" stroke-dashoffset="0" font-family="none" font-weight="none" font-size="none" text-anchor="none" style="mix-blend-mode: normal" data-fill-palette-color="tertiary"></path></g><g transform="matrix(1,0,0,1,53.91571088928309,90)"><svg viewBox="0 0 212.16857822143382 180" height="180" width="212.16857822143382"><g><svg viewBox="0 0 212.16857822143382 180" height="180" width="212.16857822143382"><g><svg viewBox="0 0 223.99999999999997 190.03756511918203" height="180" width="212.16857822143382"><g><svg viewBox="0 0 223.99999999999997 190.03756511918203" height="190.03756511918203" width="223.99999999999997"><g id="textblocktransform"><svg viewBox="0 0 223.99999999999997 190.03756511918203" height="190.03756511918203" width="223.99999999999997" id="textblock"><g><svg viewBox="0 0 223.99999999999997 98.32911392405063" height="98.32911392405063" width="223.99999999999997"><g transform="matrix(1,0,0,1,0,0)"><svg width="223.99999999999997" viewBox="0.75 -37.7 110.59 48.550000000000004" height="98.32911392405063" data-palette-color="#6936f5"><path d="M2.05-34.55L20.85-34.55 20.85-29.6 7.65-5.2 21-5.2 20.4 0 0.75 0 0.75-4.9 14-29.45 2.05-29.45 2.05-34.55ZM43.7-13.85Q43.7-13.4 43.55-11.3L43.55-11.3 29.9-11.3Q30.1-7.2 31.32-5.58 32.55-3.95 34.8-3.95L34.8-3.95Q36.35-3.95 37.6-4.48 38.85-5 40.3-6.15L40.3-6.15 42.85-2.65Q39.35 0.75 34.45 0.75L34.45 0.75Q29.25 0.75 26.47-2.85 23.7-6.45 23.7-13L23.7-13Q23.7-19.55 26.35-23.35 29-27.15 33.85-27.15L33.85-27.15Q38.5-27.15 41.1-23.78 43.7-20.4 43.7-13.85L43.7-13.85ZM37.7-15.3L37.7-15.65Q37.7-19.4 36.8-21.13 35.9-22.85 33.9-22.85L33.9-22.85Q32.05-22.85 31.07-21.18 30.1-19.5 29.9-15.3L29.9-15.3 37.7-15.3ZM66.65-26.45L59.65 0.1Q58.35 4.9 55.45 7.65 52.55 10.4 47.7 10.85L47.7 10.85 47 6.5Q50.15 5.85 51.72 4.42 53.3 3 54.2 0L54.2 0 51.9 0 45.2-26.45 51.45-26.45 55.85-4.1 60.55-26.45 66.65-26.45ZM86.44-6.4Q86.44-5.1 86.79-4.48 87.14-3.85 87.94-3.45L87.94-3.45 86.69 0.65Q84.64 0.4 83.42-0.45 82.19-1.3 81.59-3.05L81.59-3.05Q79.29 0.75 75.14 0.75L75.14 0.75Q71.84 0.75 69.89-1.48 67.94-3.7 67.94-7.4L67.94-7.4Q67.94-11.7 70.62-13.95 73.29-16.2 78.39-16.2L78.39-16.2 80.44-16.2 80.44-18.05Q80.44-20.55 79.57-21.58 78.69-22.6 76.74-22.6L76.74-22.6Q74.39-22.6 70.89-21.3L70.89-21.3 69.49-25.3Q71.49-26.2 73.64-26.68 75.79-27.15 77.74-27.15L77.74-27.15Q86.44-27.15 86.44-18.35L86.44-18.35 86.44-6.4ZM76.79-3.7Q79.19-3.7 80.44-7L80.44-7 80.44-12.55 78.99-12.55Q76.44-12.55 75.27-11.4 74.09-10.25 74.09-7.85L74.09-7.85Q74.09-5.8 74.79-4.75 75.49-3.7 76.79-3.7L76.79-3.7ZM105.19-37.7L111.34-37.05 111.34 0 105.89 0 105.59-3.05Q103.24 0.75 99.54 0.75L99.54 0.75Q95.44 0.75 93.27-2.93 91.09-6.6 91.09-13.2L91.09-13.2Q91.09-17.4 92.22-20.58 93.34-23.75 95.34-25.45 97.34-27.15 99.94-27.15L99.94-27.15Q103.14-27.15 105.19-24.5L105.19-24.5 105.19-37.7ZM101.29-3.9Q102.44-3.9 103.37-4.7 104.29-5.5 105.19-7L105.19-7 105.19-19.85Q103.59-22.55 101.54-22.55L101.54-22.55Q97.49-22.55 97.49-13.25L97.49-13.25Q97.49-8.2 98.49-6.05 99.49-3.9 101.29-3.9L101.29-3.9Z" opacity="1" transform="matrix(1,0,0,1,0,0)" fill="#6936f5" class="wordmark-text-0" data-fill-palette-color="primary" id="text-0"></path></svg></g></svg></g><g transform="matrix(1,0,0,1,0,121.5422578227848)"><svg viewBox="0 0 223.99999999999997 68.49530729639721" height="68.49530729639721" width="223.99999999999997"><g transform="matrix(1,0,0,1,0,0)"><svg width="223.99999999999997" viewBox="2.85 -39.65 165.13 50.5" height="68.49530729639721" data-palette-color="#bb84e8"><path d="M15.05-27.15Q18.95-27.15 20.95-23.58 22.95-20 22.95-13.3L22.95-13.3Q22.95-6.8 20.68-3.03 18.4 0.75 14.35 0.75L14.35 0.75Q11.15 0.75 9-2.1L9-2.1 9 10.15 2.85 10.85 2.85-26.45 8.3-26.45 8.55-23.25Q9.85-25.25 11.45-26.2 13.05-27.15 15.05-27.15L15.05-27.15ZM12.7-3.95Q14.6-3.95 15.6-6.13 16.6-8.3 16.6-13.25L16.6-13.25Q16.6-18.45 15.75-20.5 14.9-22.55 13.1-22.55L13.1-22.55Q10.8-22.55 9-19.25L9-19.25 9-6.45Q10.6-3.95 12.7-3.95L12.7-3.95ZM36.95-27.15Q41.95-27.15 44.72-23.65 47.5-20.15 47.5-13.25L47.5-13.25Q47.5-6.65 44.7-2.95 41.9 0.75 36.95 0.75L36.95 0.75Q32 0.75 29.2-2.88 26.4-6.5 26.4-13.25L26.4-13.25Q26.4-19.95 29.2-23.55 32-27.15 36.95-27.15L36.95-27.15ZM36.95-22.5Q34.8-22.5 33.8-20.38 32.8-18.25 32.8-13.25L32.8-13.25Q32.8-8.2 33.8-6.08 34.8-3.95 36.95-3.95L36.95-3.95Q39.1-3.95 40.1-6.08 41.1-8.2 41.1-13.25L41.1-13.25Q41.1-18.3 40.1-20.4 39.1-22.5 36.95-22.5L36.95-22.5ZM63.7-27.1Q64.85-27.1 65.75-26.75L65.75-26.75 64.75-20.85Q63.75-21.1 62.9-21.1L62.9-21.1Q61-21.1 59.9-19.45 58.8-17.8 58.2-14.55L58.2-14.55 58.2 0 52.05 0 52.05-26.45 57.4-26.45 57.85-21.85Q59.7-27.1 63.7-27.1L63.7-27.1ZM79.74-5L81.89-1.2Q79.44 0.75 76.14 0.75L76.14 0.75Q72.69 0.75 70.89-1.23 69.09-3.2 69.09-6.6L69.09-6.6 69.09-22 65.99-22 65.99-26.45 69.09-26.45 69.09-32.3 75.24-33.05 75.24-26.45 80.24-26.45 79.64-22 75.24-22 75.24-6.6Q75.24-4.2 77.29-4.2L77.29-4.2Q77.94-4.2 78.44-4.38 78.94-4.55 79.74-5L79.74-5ZM94.14-33.05Q92.74-33.05 92.06-32.3 91.39-31.55 91.39-30L91.39-30 91.39-26.45 96.44-26.45 95.74-22 91.39-22 91.39 0 85.24 0 85.24-22 81.94-22 81.94-26.45 85.24-26.45 85.24-29.8Q85.24-33.4 87.34-35.55 89.44-37.7 93.34-37.7L93.34-37.7Q96.39-37.7 99.24-36.2L99.24-36.2 97.54-32.2Q95.79-33.05 94.14-33.05L94.14-33.05ZM108.64-27.15Q113.64-27.15 116.41-23.65 119.19-20.15 119.19-13.25L119.19-13.25Q119.19-6.65 116.39-2.95 113.59 0.75 108.64 0.75L108.64 0.75Q103.69 0.75 100.89-2.88 98.09-6.5 98.09-13.25L98.09-13.25Q98.09-19.95 100.89-23.55 103.69-27.15 108.64-27.15L108.64-27.15ZM108.64-22.5Q106.49-22.5 105.49-20.38 104.49-18.25 104.49-13.25L104.49-13.25Q104.49-8.2 105.49-6.08 106.49-3.95 108.64-3.95L108.64-3.95Q110.79-3.95 111.79-6.08 112.79-8.2 112.79-13.25L112.79-13.25Q112.79-18.3 111.79-20.4 110.79-22.5 108.64-22.5L108.64-22.5ZM129.34 0.75Q126.64 0.75 125.06-0.93 123.48-2.6 123.48-5.4L123.48-5.4 123.48-37.05 129.63-37.7 129.63-5.65Q129.63-5 129.94-4.6 130.24-4.2 130.84-4.2L130.84-4.2Q131.19-4.2 131.51-4.3 131.84-4.4 131.94-4.4L131.94-4.4 133.13-0.2Q131.44 0.75 129.34 0.75L129.34 0.75ZM136.18-26.45L142.33-26.45 142.33 0 136.18 0 136.18-26.45ZM139.23-39.65Q140.88-39.65 141.91-38.6 142.93-37.55 142.93-35.9L142.93-35.9Q142.93-34.3 141.91-33.25 140.88-32.2 139.23-32.2L139.23-32.2Q137.58-32.2 136.56-33.25 135.53-34.3 135.53-35.9L135.53-35.9Q135.53-37.55 136.56-38.6 137.58-39.65 139.23-39.65L139.23-39.65ZM157.43-27.15Q162.43-27.15 165.21-23.65 167.98-20.15 167.98-13.25L167.98-13.25Q167.98-6.65 165.18-2.95 162.38 0.75 157.43 0.75L157.43 0.75Q152.48 0.75 149.68-2.88 146.88-6.5 146.88-13.25L146.88-13.25Q146.88-19.95 149.68-23.55 152.48-27.15 157.43-27.15L157.43-27.15ZM157.43-22.5Q155.28-22.5 154.28-20.38 153.28-18.25 153.28-13.25L153.28-13.25Q153.28-8.2 154.28-6.08 155.28-3.95 157.43-3.95L157.43-3.95Q159.58-3.95 160.58-6.08 161.58-8.2 161.58-13.25L161.58-13.25Q161.58-18.3 160.58-20.4 159.58-22.5 157.43-22.5L157.43-22.5Z" opacity="1" transform="matrix(1,0,0,1,0,0)" fill="#bb84e8" class="slogan-text-1" data-fill-palette-color="secondary" id="text-1"></path></svg></g></svg></g></svg></g></svg></g><g></g></svg></g></svg></g></svg></g></svg></g><defs></defs></svg><rect width="320" height="360" fill="none" stroke="none" visibility="hidden"></rect></g></svg></g></svg>